<svg xmlns="http://www.w3.org/2000/svg" xmlns:xlink="http://www.w3.org/1999/xlink" width="100" zoomAndPan="magnify" viewBox="0 0 75 74.999997" height="100" preserveAspectRatio="xMidYMid meet" version="1.0"><defs><clipPath id="532a561190"><path d="M 5 0.75 L 57 0.75 L 57 58 L 5 58 Z M 5 0.75 " clip-rule="nonzero"/></clipPath><clipPath id="df6759d32a"><path d="M 14 36 L 70.171875 36 L 70.171875 75 L 14 75 Z M 14 36 " clip-rule="nonzero"/></clipPath><clipPath id="185d4f8715"><path d="M 15 48 L 70.171875 48 L 70.171875 75 L 15 75 Z M 15 48 " clip-rule="nonzero"/></clipPath></defs><g clip-path="url(#532a561190)"><path fill="#006694" d="M 21.996094 57.34375 L 54.949219 45.816406 C 55.164062 45.742188 55.355469 45.628906 55.527344 45.476562 C 55.695312 45.324219 55.828125 45.148438 55.929688 44.941406 C 56.027344 44.738281 56.085938 44.523438 56.097656 44.296875 C 56.109375 44.070312 56.078125 43.847656 56.003906 43.632812 L 41.445312 2.117188 C 41.367188 1.902344 41.253906 1.710938 41.101562 1.542969 C 40.949219 1.371094 40.769531 1.238281 40.566406 1.140625 C 40.359375 1.042969 40.144531 0.984375 39.917969 0.972656 C 39.6875 0.960938 39.46875 0.992188 39.253906 1.066406 L 6.300781 12.589844 C 6.085938 12.664062 5.894531 12.777344 5.722656 12.929688 C 5.554688 13.082031 5.421875 13.261719 5.320312 13.464844 C 5.222656 13.671875 5.167969 13.886719 5.15625 14.113281 C 5.140625 14.339844 5.171875 14.5625 5.246094 14.777344 L 19.804688 56.289062 C 19.882812 56.503906 19.996094 56.695312 20.148438 56.863281 C 20.300781 57.035156 20.476562 57.167969 20.683594 57.265625 C 20.886719 57.367188 21.105469 57.421875 21.332031 57.433594 C 21.558594 57.449219 21.78125 57.417969 21.996094 57.34375 Z M 21.996094 57.34375 " fill-opacity="1" fill-rule="evenodd"/></g><path fill="#005c85" d="M 20.410156 57.101562 L 13.378906 15.445312 C 13.308594 15.039062 13.320312 14.636719 13.414062 14.234375 C 13.507812 13.835938 13.671875 13.464844 13.910156 13.132812 C 14.152344 12.796875 14.445312 12.519531 14.792969 12.300781 C 15.144531 12.082031 15.519531 11.9375 15.925781 11.871094 L 43.25 7.269531 L 56.003906 43.632812 C 56.078125 43.847656 56.109375 44.070312 56.097656 44.296875 C 56.085938 44.523438 56.027344 44.738281 55.929688 44.945312 C 55.828125 45.148438 55.695312 45.328125 55.527344 45.476562 C 55.355469 45.628906 55.164062 45.742188 54.949219 45.816406 L 21.996094 57.34375 C 21.425781 57.539062 20.898438 57.460938 20.410156 57.101562 Z M 20.410156 57.101562 " fill-opacity="1" fill-rule="evenodd"/><path fill="#31ceff" d="M 24.050781 59.996094 L 58.476562 54.203125 C 58.703125 54.164062 58.910156 54.085938 59.105469 53.964844 C 59.296875 53.84375 59.460938 53.6875 59.59375 53.503906 C 59.726562 53.316406 59.816406 53.113281 59.867188 52.894531 C 59.917969 52.671875 59.925781 52.449219 59.890625 52.222656 L 52.566406 8.847656 C 52.527344 8.625 52.445312 8.414062 52.324219 8.222656 C 52.203125 8.03125 52.050781 7.871094 51.867188 7.738281 C 51.679688 7.605469 51.476562 7.515625 51.257812 7.464844 C 51.035156 7.414062 50.8125 7.40625 50.585938 7.441406 L 16.15625 13.234375 C 15.933594 13.273438 15.722656 13.355469 15.53125 13.476562 C 15.335938 13.597656 15.175781 13.75 15.042969 13.9375 C 14.910156 14.121094 14.820312 14.324219 14.769531 14.546875 C 14.71875 14.769531 14.710938 14.992188 14.75 15.214844 L 22.070312 58.589844 C 22.109375 58.816406 22.1875 59.023438 22.308594 59.214844 C 22.429688 59.40625 22.585938 59.570312 22.769531 59.703125 C 22.957031 59.832031 23.160156 59.925781 23.382812 59.976562 C 23.605469 60.027344 23.828125 60.03125 24.050781 59.996094 Z M 24.050781 59.996094 " fill-opacity="1" fill-rule="evenodd"/><path fill="#2cb9e6" d="M 22.695312 59.648438 L 22.695312 17.488281 C 22.695312 17.0625 22.777344 16.65625 22.941406 16.265625 C 23.105469 15.871094 23.335938 15.527344 23.636719 15.226562 C 23.9375 14.925781 24.28125 14.695312 24.675781 14.53125 C 25.066406 14.371094 25.476562 14.289062 25.902344 14.285156 L 53.484375 14.285156 L 59.890625 52.222656 C 59.925781 52.449219 59.917969 52.671875 59.867188 52.894531 C 59.816406 53.113281 59.726562 53.316406 59.59375 53.503906 C 59.460938 53.6875 59.296875 53.84375 59.105469 53.964844 C 58.910156 54.085938 58.703125 54.164062 58.476562 54.203125 L 24.050781 59.996094 C 23.546875 60.082031 23.09375 59.964844 22.695312 59.648438 Z M 22.695312 59.648438 " fill-opacity="1" fill-rule="evenodd"/><path fill="#dfeef5" d="M 25.902344 63.191406 L 60.8125 63.191406 C 61.042969 63.191406 61.261719 63.148438 61.472656 63.058594 C 61.683594 62.972656 61.867188 62.847656 62.027344 62.6875 C 62.1875 62.527344 62.3125 62.339844 62.402344 62.128906 C 62.488281 61.917969 62.53125 61.699219 62.53125 61.472656 L 62.53125 17.488281 C 62.53125 17.261719 62.488281 17.042969 62.398438 16.832031 C 62.3125 16.621094 62.1875 16.4375 62.027344 16.277344 C 61.867188 16.113281 61.679688 15.992188 61.472656 15.902344 C 61.261719 15.816406 61.042969 15.773438 60.8125 15.773438 L 25.902344 15.773438 C 25.671875 15.773438 25.453125 15.816406 25.242188 15.902344 C 25.03125 15.992188 24.847656 16.113281 24.6875 16.277344 C 24.523438 16.4375 24.398438 16.621094 24.3125 16.832031 C 24.222656 17.042969 24.179688 17.261719 24.179688 17.488281 L 24.179688 61.472656 C 24.179688 61.699219 24.222656 61.917969 24.3125 62.128906 C 24.398438 62.339844 24.523438 62.527344 24.683594 62.6875 C 24.847656 62.847656 25.03125 62.972656 25.242188 63.058594 C 25.453125 63.148438 25.671875 63.191406 25.902344 63.191406 Z M 25.902344 63.191406 " fill-opacity="1" fill-rule="evenodd"/><g clip-path="url(#df6759d32a)"><path fill="#ffba57" d="M 43.472656 48.15625 L 63.597656 48.15625 C 64.027344 48.160156 64.453125 48.203125 64.875 48.289062 C 65.300781 48.371094 65.707031 48.496094 66.105469 48.664062 C 66.503906 48.828125 66.882812 49.03125 67.238281 49.269531 C 67.597656 49.507812 67.929688 49.78125 68.234375 50.085938 C 68.539062 50.386719 68.808594 50.71875 69.050781 51.078125 C 69.289062 51.433594 69.492188 51.8125 69.65625 52.207031 C 69.820312 52.605469 69.949219 53.015625 70.03125 53.4375 C 70.117188 53.859375 70.160156 54.285156 70.164062 54.714844 L 70.164062 69.195312 C 70.160156 69.625 70.117188 70.050781 70.03125 70.472656 C 69.949219 70.894531 69.824219 71.304688 69.65625 71.699219 C 69.492188 72.097656 69.289062 72.476562 69.050781 72.832031 C 68.8125 73.191406 68.539062 73.519531 68.234375 73.824219 C 67.929688 74.128906 67.597656 74.398438 67.242188 74.640625 C 66.882812 74.878906 66.503906 75.082031 66.105469 75.246094 C 65.710938 75.410156 65.300781 75.535156 64.878906 75.621094 C 64.453125 75.707031 64.027344 75.75 63.597656 75.75 L 20.699219 75.75 C 20.269531 75.75 19.84375 75.707031 19.421875 75.621094 C 19 75.535156 18.589844 75.410156 18.191406 75.246094 C 17.792969 75.078125 17.417969 74.878906 17.058594 74.636719 C 16.699219 74.398438 16.371094 74.128906 16.066406 73.824219 C 15.761719 73.519531 15.488281 73.1875 15.25 72.832031 C 15.007812 72.472656 14.808594 72.097656 14.640625 71.699219 C 14.476562 71.304688 14.351562 70.894531 14.265625 70.472656 C 14.179688 70.050781 14.136719 69.625 14.136719 69.195312 L 14.136719 41.605469 C 14.136719 41.253906 14.171875 40.902344 14.242188 40.554688 C 14.3125 40.210938 14.414062 39.871094 14.550781 39.546875 C 14.6875 39.21875 14.851562 38.910156 15.050781 38.617188 C 15.246094 38.320312 15.46875 38.050781 15.71875 37.800781 C 15.96875 37.550781 16.242188 37.324219 16.539062 37.128906 C 16.832031 36.933594 17.140625 36.765625 17.46875 36.632812 C 17.796875 36.496094 18.132812 36.394531 18.480469 36.324219 C 18.828125 36.253906 19.179688 36.21875 19.535156 36.21875 L 27.242188 36.21875 C 29.136719 36.21875 30.429688 37.382812 31.789062 38.707031 L 38.925781 45.671875 C 40.28125 46.992188 41.578125 48.15625 43.472656 48.15625 Z M 43.472656 48.15625 " fill-opacity="1" fill-rule="evenodd"/></g><path fill="#0091ca" d="M 37.125 31.785156 L 29.875 31.785156 C 29.320312 31.785156 28.976562 31.332031 29.050781 30.78125 L 29.394531 28.441406 C 29.601562 27 30.582031 25.792969 32.042969 25.792969 L 34.957031 25.792969 C 36.417969 25.792969 37.402344 27 37.613281 28.441406 L 37.949219 30.78125 C 38.023438 31.332031 37.679688 31.785156 37.125 31.785156 Z M 37.125 31.785156 " fill-opacity="1" fill-rule="evenodd"/><path fill="#fbbd80" d="M 33.503906 24.871094 C 33.855469 24.871094 34.195312 24.800781 34.523438 24.664062 C 34.851562 24.53125 35.136719 24.335938 35.386719 24.085938 C 35.636719 23.835938 35.828125 23.546875 35.964844 23.222656 C 36.101562 22.894531 36.167969 22.554688 36.167969 22.203125 C 36.167969 21.847656 36.097656 21.507812 35.960938 21.183594 C 35.828125 20.855469 35.632812 20.566406 35.382812 20.320312 C 35.132812 20.070312 34.84375 19.878906 34.515625 19.742188 C 34.191406 19.605469 33.851562 19.539062 33.496094 19.539062 C 33.140625 19.539062 32.800781 19.609375 32.476562 19.742188 C 32.148438 19.878906 31.859375 20.070312 31.609375 20.320312 C 31.359375 20.570312 31.167969 20.859375 31.03125 21.1875 C 30.898438 21.511719 30.828125 21.851562 30.828125 22.207031 C 30.832031 22.558594 30.898438 22.898438 31.035156 23.226562 C 31.171875 23.550781 31.363281 23.839844 31.613281 24.089844 C 31.867188 24.339844 32.152344 24.53125 32.480469 24.667969 C 32.808594 24.800781 33.148438 24.871094 33.503906 24.871094 Z M 33.503906 24.871094 " fill-opacity="1" fill-rule="evenodd"/><path fill="#c4d2d8" d="M 57.289062 24.613281 C 57.429688 24.613281 57.5625 24.640625 57.691406 24.695312 C 57.820312 24.746094 57.933594 24.824219 58.03125 24.921875 C 58.128906 25.019531 58.207031 25.132812 58.257812 25.261719 C 58.3125 25.390625 58.339844 25.523438 58.339844 25.664062 C 58.339844 25.800781 58.3125 25.9375 58.257812 26.066406 C 58.207031 26.195312 58.128906 26.308594 58.03125 26.40625 C 57.933594 26.503906 57.820312 26.578125 57.691406 26.632812 C 57.5625 26.6875 57.429688 26.710938 57.289062 26.710938 L 42.949219 26.710938 C 42.808594 26.710938 42.675781 26.6875 42.546875 26.632812 C 42.417969 26.578125 42.304688 26.503906 42.207031 26.40625 C 42.105469 26.308594 42.03125 26.195312 41.976562 26.066406 C 41.925781 25.9375 41.898438 25.800781 41.898438 25.664062 C 41.898438 25.523438 41.925781 25.390625 41.976562 25.261719 C 42.03125 25.132812 42.105469 25.019531 42.207031 24.921875 C 42.304688 24.824219 42.417969 24.746094 42.546875 24.695312 C 42.675781 24.640625 42.808594 24.613281 42.949219 24.613281 Z M 57.289062 20.390625 C 57.429688 20.390625 57.5625 20.417969 57.691406 20.472656 C 57.820312 20.523438 57.933594 20.601562 58.035156 20.699219 C 58.132812 20.796875 58.207031 20.910156 58.261719 21.039062 C 58.316406 21.167969 58.339844 21.304688 58.339844 21.441406 C 58.339844 21.582031 58.316406 21.71875 58.261719 21.847656 C 58.207031 21.972656 58.132812 22.089844 58.035156 22.1875 C 57.933594 22.285156 57.820312 22.363281 57.691406 22.414062 C 57.5625 22.46875 57.429688 22.496094 57.289062 22.496094 L 42.949219 22.496094 C 42.808594 22.496094 42.675781 22.46875 42.546875 22.414062 C 42.417969 22.363281 42.300781 22.285156 42.203125 22.1875 C 42.105469 22.089844 42.027344 21.972656 41.976562 21.847656 C 41.921875 21.71875 41.894531 21.582031 41.894531 21.441406 C 41.894531 21.304688 41.921875 21.167969 41.976562 21.039062 C 42.027344 20.910156 42.105469 20.796875 42.203125 20.699219 C 42.300781 20.601562 42.417969 20.523438 42.546875 20.472656 C 42.675781 20.417969 42.808594 20.390625 42.949219 20.390625 Z M 57.289062 28.832031 C 57.429688 28.832031 57.5625 28.859375 57.691406 28.914062 C 57.820312 28.964844 57.933594 29.042969 58.035156 29.140625 C 58.132812 29.238281 58.207031 29.351562 58.261719 29.480469 C 58.316406 29.609375 58.339844 29.746094 58.339844 29.882812 C 58.339844 30.023438 58.316406 30.15625 58.261719 30.285156 C 58.207031 30.414062 58.132812 30.53125 58.035156 30.628906 C 57.933594 30.726562 57.820312 30.800781 57.691406 30.855469 C 57.5625 30.910156 57.429688 30.9375 57.289062 30.9375 L 42.949219 30.9375 C 42.808594 30.9375 42.675781 30.910156 42.546875 30.855469 C 42.417969 30.800781 42.300781 30.726562 42.203125 30.628906 C 42.105469 30.53125 42.027344 30.414062 41.976562 30.285156 C 41.921875 30.15625 41.894531 30.023438 41.894531 29.882812 C 41.894531 29.746094 41.921875 29.609375 41.976562 29.480469 C 42.027344 29.351562 42.105469 29.238281 42.203125 29.140625 C 42.300781 29.042969 42.417969 28.964844 42.546875 28.914062 C 42.675781 28.859375 42.808594 28.832031 42.949219 28.832031 Z M 57.289062 28.832031 " fill-opacity="1" fill-rule="nonzero"/><path fill="#e6a74e" d="M 30.847656 64.1875 C 30.984375 64.1875 31.121094 64.214844 31.25 64.269531 C 31.378906 64.324219 31.492188 64.398438 31.589844 64.496094 C 31.6875 64.597656 31.765625 64.710938 31.816406 64.839844 C 31.871094 64.96875 31.898438 65.101562 31.898438 65.242188 C 31.898438 65.378906 31.871094 65.511719 31.816406 65.640625 C 31.765625 65.769531 31.6875 65.882812 31.589844 65.984375 C 31.492188 66.082031 31.378906 66.15625 31.25 66.210938 C 31.121094 66.265625 30.984375 66.292969 30.847656 66.292969 L 20.726562 66.292969 C 20.585938 66.292969 20.453125 66.265625 20.324219 66.210938 C 20.195312 66.15625 20.082031 66.082031 19.984375 65.984375 C 19.882812 65.882812 19.808594 65.769531 19.753906 65.640625 C 19.703125 65.511719 19.675781 65.378906 19.675781 65.242188 C 19.675781 65.101562 19.703125 64.96875 19.753906 64.839844 C 19.808594 64.710938 19.882812 64.597656 19.984375 64.496094 C 20.082031 64.398438 20.195312 64.324219 20.324219 64.269531 C 20.453125 64.214844 20.585938 64.1875 20.726562 64.1875 Z M 48.78125 69.144531 C 48.917969 69.144531 49.054688 69.171875 49.183594 69.222656 C 49.3125 69.277344 49.425781 69.351562 49.523438 69.453125 C 49.625 69.550781 49.699219 69.664062 49.753906 69.792969 C 49.804688 69.921875 49.832031 70.054688 49.832031 70.195312 C 49.832031 70.335938 49.804688 70.46875 49.753906 70.597656 C 49.699219 70.726562 49.625 70.839844 49.523438 70.9375 C 49.425781 71.039062 49.3125 71.113281 49.183594 71.167969 C 49.054688 71.21875 48.917969 71.246094 48.78125 71.246094 L 20.726562 71.246094 C 20.585938 71.246094 20.453125 71.21875 20.324219 71.167969 C 20.195312 71.113281 20.082031 71.039062 19.980469 70.9375 C 19.882812 70.839844 19.808594 70.726562 19.753906 70.597656 C 19.699219 70.46875 19.671875 70.335938 19.671875 70.195312 C 19.671875 70.054688 19.699219 69.921875 19.753906 69.792969 C 19.808594 69.664062 19.882812 69.550781 19.980469 69.453125 C 20.082031 69.351562 20.195312 69.277344 20.324219 69.222656 C 20.453125 69.171875 20.585938 69.144531 20.726562 69.144531 Z M 48.78125 69.144531 " fill-opacity="1" fill-rule="nonzero"/><g clip-path="url(#185d4f8715)"><path fill="#e6a74e" d="M 67.457031 67.058594 C 67.453125 67.488281 67.410156 67.914062 67.324219 68.335938 C 67.242188 68.757812 67.117188 69.167969 66.949219 69.5625 C 66.785156 69.960938 66.582031 70.335938 66.34375 70.695312 C 66.101562 71.050781 65.832031 71.382812 65.527344 71.6875 C 65.222656 71.992188 64.890625 72.261719 64.53125 72.5 C 64.175781 72.742188 63.796875 72.941406 63.398438 73.109375 C 63 73.273438 62.59375 73.398438 62.171875 73.484375 C 61.746094 73.570312 61.320312 73.613281 60.890625 73.613281 L 17.992188 73.613281 C 17.101562 73.613281 16.246094 73.4375 15.425781 73.085938 C 16.046875 73.921875 16.820312 74.574219 17.746094 75.042969 C 18.675781 75.511719 19.660156 75.75 20.699219 75.75 L 63.597656 75.75 C 64.027344 75.75 64.453125 75.707031 64.878906 75.621094 C 65.300781 75.535156 65.710938 75.410156 66.105469 75.246094 C 66.503906 75.082031 66.882812 74.878906 67.242188 74.640625 C 67.597656 74.398438 67.929688 74.128906 68.234375 73.824219 C 68.539062 73.519531 68.8125 73.191406 69.050781 72.832031 C 69.289062 72.476562 69.492188 72.097656 69.65625 71.699219 C 69.824219 71.304688 69.949219 70.894531 70.03125 70.472656 C 70.117188 70.050781 70.160156 69.625 70.164062 69.195312 L 70.164062 54.714844 C 70.160156 54.070312 70.066406 53.441406 69.878906 52.828125 C 69.695312 52.214844 69.421875 51.636719 69.070312 51.101562 C 68.714844 50.566406 68.289062 50.09375 67.796875 49.683594 C 67.300781 49.269531 66.757812 48.9375 66.167969 48.6875 C 67.027344 49.839844 67.457031 51.136719 67.457031 52.578125 Z M 67.457031 67.058594 " fill-opacity="1" fill-rule="evenodd"/></g><path fill="#c4d2d8" d="M 60.785156 17.488281 L 60.785156 48.15625 L 62.53125 48.15625 L 62.53125 17.488281 C 62.53125 17.261719 62.488281 17.042969 62.398438 16.832031 C 62.3125 16.621094 62.1875 16.4375 62.027344 16.277344 C 61.867188 16.113281 61.679688 15.992188 61.472656 15.902344 C 61.261719 15.816406 61.042969 15.773438 60.8125 15.773438 L 59.066406 15.773438 C 59.292969 15.773438 59.511719 15.816406 59.722656 15.902344 C 59.933594 15.992188 60.117188 16.113281 60.28125 16.277344 C 60.441406 16.4375 60.566406 16.621094 60.652344 16.832031 C 60.738281 17.042969 60.785156 17.261719 60.785156 17.488281 Z M 60.785156 17.488281 " fill-opacity="1" fill-rule="evenodd"/><path fill="#e2aa73" d="M 35.070312 22.207031 C 35.070312 22.511719 35.019531 22.808594 34.917969 23.097656 C 34.816406 23.386719 34.667969 23.648438 34.476562 23.886719 C 34.28125 24.125 34.054688 24.320312 33.792969 24.480469 C 33.53125 24.640625 33.253906 24.753906 32.953125 24.816406 C 33.132812 24.851562 33.316406 24.871094 33.503906 24.871094 C 33.855469 24.867188 34.191406 24.796875 34.515625 24.660156 C 34.84375 24.527344 35.128906 24.332031 35.375 24.082031 C 35.625 23.832031 35.816406 23.546875 35.949219 23.222656 C 36.082031 22.894531 36.152344 22.558594 36.152344 22.207031 C 36.152344 21.855469 36.082031 21.515625 35.949219 21.191406 C 35.816406 20.867188 35.625 20.578125 35.375 20.328125 C 35.128906 20.078125 34.84375 19.886719 34.515625 19.75 C 34.191406 19.613281 33.855469 19.542969 33.503906 19.542969 C 33.316406 19.542969 33.132812 19.558594 32.953125 19.597656 C 33.25 19.660156 33.53125 19.769531 33.792969 19.929688 C 34.054688 20.089844 34.28125 20.289062 34.472656 20.527344 C 34.667969 20.765625 34.8125 21.027344 34.917969 21.316406 C 35.019531 21.601562 35.070312 21.898438 35.070312 22.207031 Z M 35.070312 22.207031 " fill-opacity="1" fill-rule="evenodd"/><path fill="#0083b6" d="M 37.613281 28.441406 C 37.402344 27 36.417969 25.792969 34.957031 25.792969 L 33.855469 25.792969 C 35.320312 25.792969 36.300781 27 36.511719 28.441406 L 36.847656 30.78125 C 36.925781 31.332031 36.578125 31.785156 36.023438 31.785156 L 37.125 31.785156 C 37.679688 31.785156 38.023438 31.332031 37.949219 30.78125 Z M 37.613281 28.441406 " fill-opacity="1" fill-rule="evenodd"/><path stroke-linecap="butt" transform="matrix(0.245196, 0.708787, -0.708787, 0.245196, 41.446489, 45.766994)" fill="none" stroke-linejoin="miter" d="M 0.00202248 0.498365 L 1.350976 0.502079 " stroke="#ffffff" stroke-width="1" stroke-opacity="1" stroke-miterlimit="4"/></svg>